<svg width="15" height="16" viewBox="0 0 15 16" fill="none" xmlns="http://www.w3.org/2000/svg">
    <path d="M0.878906 13.1797V5.60645C0.878906 4.8252 1.08154 4.23438 1.48682 3.83398C1.89209 3.42871 2.49023 3.22607 3.28125 3.22607H4.32129C4.33594 2.6792 4.48486 2.17871 4.76807 1.72461C5.05615 1.27051 5.43701 0.90918 5.91064 0.640625C6.38916 0.367188 6.91895 0.230469 7.5 0.230469C8.07617 0.230469 8.60107 0.367188 9.07471 0.640625C9.55322 0.90918 9.93652 1.27051 10.2246 1.72461C10.5127 2.17871 10.6616 2.6792 10.6714 3.22607H11.7188C12.5049 3.22607 13.1006 3.42871 13.5059 3.83398C13.916 4.23438 14.1211 4.8252 14.1211 5.60645V13.1797C14.1211 13.9609 13.9258 14.5518 13.5352 14.9521C13.1445 15.3574 12.6001 15.5601 11.9019 15.5601H3.28125C2.49023 15.5601 1.89209 15.3574 1.48682 14.9521C1.08154 14.5518 0.878906 13.9609 0.878906 13.1797ZM2.32178 13.0552C2.32178 13.4116 2.40967 13.6777 2.58545 13.8535C2.76611 14.0293 3.02734 14.1172 3.36914 14.1172H11.8066C12.0557 14.1172 12.2632 14.0293 12.4292 13.8535C12.5952 13.6777 12.6782 13.4116 12.6782 13.0552V5.73096C12.6782 5.37451 12.5854 5.1084 12.3999 4.93262C12.2192 4.75684 11.9604 4.66895 11.6235 4.66895H3.36914C3.02734 4.66895 2.76611 4.75684 2.58545 4.93262C2.40967 5.1084 2.32178 5.37451 2.32178 5.73096V13.0552ZM5.72021 3.22607H9.27246C9.26758 2.90869 9.18701 2.62061 9.03076 2.36182C8.87451 2.10303 8.66211 1.89795 8.39355 1.74658C8.12988 1.59033 7.83203 1.51221 7.5 1.51221C7.16309 1.51221 6.86279 1.59033 6.59912 1.74658C6.33545 1.89795 6.12305 2.10303 5.96191 2.36182C5.80566 2.62061 5.7251 2.90869 5.72021 3.22607Z"
          fill="white"/>
</svg>
